HIERARCHY
ROOT Hips
{
	OFFSET -171.749893 91.474121 45.959751
	CHANNELS 6 Xposition Yposition Zposition Zrotation Yrotation Xrotation 
	JOINT LeftUpLeg
	{
		OFFSET 0.103457 1.857826 10.548511
		CHANNELS 3 Zrotation Yrotation Xrotation
		JOINT LeftLeg
		{
			OFFSET 43.500004 -0.000023 -0.000002
			CHANNELS 3 Zrotation Yrotation Xrotation
			JOINT LeftFoot
			{
				OFFSET 42.372200 0.000019 -0.000004
				CHANNELS 3 Zrotation Yrotation Xrotation
				JOINT LeftToe
				{
					OFFSET 17.299992 -0.000002 0.000010
					CHANNELS 3 Zrotation Yrotation Xrotation
					End Site
					{
						OFFSET 0.000000 0.000000 0.000000
					}
				}
			}
		}
	}
	JOINT RightUpLeg
	{
		OFFSET 0.103460 1.857830 -10.548507
		CHANNELS 3 Zrotation Yrotation Xrotation
		JOINT RightLeg
		{
			OFFSET 43.500042 -0.000023 0.000004
			CHANNELS 3 Zrotation Yrotation Xrotation
			JOINT RightFoot
			{
				OFFSET 42.372261 -0.000004 0.000010
				CHANNELS 3 Zrotation Yrotation Xrotation
				JOINT RightToe
				{
					OFFSET 17.299994 -0.000004 0.000023
					CHANNELS 3 Zrotation Yrotation Xrotation
					End Site
					{
						OFFSET 0.000000 0.000000 0.000000
					}
				}
			}
		}
	}
	JOINT Spine
	{
		OFFSET 6.901968 -2.603732 -0.000001
		CHANNELS 3 Zrotation Yrotation Xrotation
		JOINT Spine1
		{
			OFFSET 12.588099 -0.000002 -0.000003
			CHANNELS 3 Zrotation Yrotation Xrotation
			JOINT Spine2
			{
				OFFSET 12.343203 0.000006 0.000013
				CHANNELS 3 Zrotation Yrotation Xrotation
				JOINT Neck
				{
					OFFSET 25.832897 -0.000006 -0.000003
					CHANNELS 3 Zrotation Yrotation Xrotation
					JOINT Head
					{
						OFFSET 11.766602 0.000011 -0.000001
						CHANNELS 3 Zrotation Yrotation Xrotation
						End Site
						{
							OFFSET 0.000000 0.000000 0.000000
						}
					}
				}
				JOINT LeftShoulder
				{
					OFFSET 19.745899 -1.480368 6.000101
					CHANNELS 3 Zrotation Yrotation Xrotation
					JOINT LeftArm
					{
						OFFSET 11.284125 -0.000008 -0.000014
						CHANNELS 3 Zrotation Yrotation Xrotation
						JOINT LeftForeArm
						{
							OFFSET 33.000042 0.000005 0.000034
							CHANNELS 3 Zrotation Yrotation Xrotation
							JOINT LeftHand
							{
								OFFSET 25.200005 0.000015 -0.000001
								CHANNELS 3 Zrotation Yrotation Xrotation
								End Site
								{
									OFFSET 0.000000 0.000000 0.000000
								}
							}
						}
					}
				}
				JOINT RightShoulder
				{
					OFFSET 19.746099 -1.480375 -6.000082
					CHANNELS 3 Zrotation Yrotation Xrotation
					JOINT RightArm
					{
						OFFSET 11.284144 -0.000014 -0.000017
						CHANNELS 3 Zrotation Yrotation Xrotation
						JOINT RightForeArm
						{
							OFFSET 33.000092 0.000015 0.000010
							CHANNELS 3 Zrotation Yrotation Xrotation
							JOINT RightHand
							{
								OFFSET 25.199768 0.000141 0.000429
								CHANNELS 3 Zrotation Yrotation Xrotation
								End Site
								{
									OFFSET 0.000000 0.000000 0.000000
								}
							}
						}
					}
				}
			}
		}
	}
}
MOTION
Frames: 11
Frame Time: 0.033333
-173.388397 16.162781 46.505020 -166.498401 -81.752952 -13.784093 164.923974 -14.933112 155.727425 -42.009949 -4.542518 9.569978 89.234769 -10.161612 -21.031734 21.454558 0.003095 -0.000008 166.773248 9.110298 -170.178862 -35.455457 4.421707 2.010463 96.992135 -0.133753 13.791182 21.454558 -0.003109 -0.000012 4.885064 -0.344882 0.800644 -0.247531 -0.687520 1.602310 -0.565515 -0.677694 1.606430 2.911252 0.829235 -4.718678 -37.633478 -0.659214 -4.476336 -107.329989 -80.579840 -75.138447 46.401723 47.681899 -5.306878 -119.123212 5.004422 3.228395 -47.225646 -40.230921 41.873110 -121.220080 85.268567 60.782878 45.613373 -22.136990 -28.661045 -121.878510 0.909695 -3.799048 -70.990575 43.086428 -64.001946 
-173.589706 16.105061 46.345440 -168.479593 -81.804896 -11.340514 165.026605 -15.029302 155.617172 -41.772494 -4.230224 10.108361 88.173207 -10.752760 -20.957186 21.454551 0.003097 0.000000 167.377269 9.134088 -171.038018 -35.246071 4.965883 2.194906 98.099521 -0.405627 13.740764 21.454560 -0.003115 -0.000013 4.938769 -0.419864 0.831880 -0.141401 -0.838122 1.664628 -0.459385 -0.827935 1.669657 3.680239 0.888885 -5.209967 -38.520792 -0.212667 -5.269701 -110.122423 -81.065432 -72.286057 47.926006 45.320921 2.221814 -119.970210 4.380393 3.305668 -48.457098 -36.188050 44.418947 -121.940815 84.769881 60.091936 45.706858 -21.628620 -28.982740 -121.923398 0.840331 -3.794533 -71.727006 43.349411 -64.623739 
-173.831497 16.075220 46.199570 -169.969107 -81.905313 -9.312592 165.014201 -15.233711 155.552504 -41.690279 -3.902294 10.642487 87.503664 -11.256112 -20.844627 21.454550 0.003087 -0.000003 167.889738 9.051185 -171.604036 -35.076228 5.415561 2.600506 99.193342 -0.847045 13.372395 21.454553 -0.003112 -0.000013 4.988612 -0.462367 0.778962 -0.041908 -0.923923 1.558482 -0.359919 -0.914363 1.564032 4.133977 0.807044 -5.470850 -39.127258 0.380962 -5.935215 -110.408813 -81.600127 -71.954998 46.593781 43.136493 4.746385 -119.248505 4.089248 3.296098 -50.673064 -32.084260 49.665820 -119.705513 84.246702 62.376498 44.970929 -21.213707 -29.551766 -121.871612 0.914293 -3.797589 -72.815786 43.510276 -65.784646 
-174.063095 16.059910 46.078220 -170.837702 -81.969087 -7.975614 164.916639 -15.400203 155.396803 -41.772597 -3.527627 11.038217 87.315383 -11.561572 -20.724544 21.454550 0.003094 -0.000003 168.306448 8.973012 -172.094881 -34.795904 5.802818 2.975580 100.196403 -1.208959 13.578125 21.454558 -0.003101 -0.000017 5.004871 -0.491186 0.669454 -0.008842 -0.981887 1.339353 -0.326893 -0.973652 1.345257 4.501771 0.916234 -5.465032 -39.479600 0.856329 -6.206256 -106.652748 -82.552890 -75.658402 43.408041 39.768558 7.205316 -117.737804 3.668137 3.262756 -50.538817 -33.366707 49.665977 -119.474653 83.750188 62.643579 43.789265 -20.497109 -29.808322 -121.727099 0.969612 -3.795614 -73.997634 43.752908 -66.996260 
-174.237900 16.048670 46.029289 -170.998307 -82.107876 -7.472639 164.826986 -15.563194 155.127393 -41.724881 -3.090751 11.366267 87.244247 -11.849952 -20.866778 21.454557 0.003091 -0.000006 168.513703 8.895711 -172.729228 -34.508288 6.212742 2.968547 100.581994 -1.250300 13.690642 21.454560 -0.003111 -0.000019 4.996733 -0.480809 0.518630 -0.023739 -0.961171 1.037746 -0.341825 -0.954757 1.043530 4.706788 1.718054 -5.242743 -39.668161 0.737020 -5.744054 -101.363381 -83.549736 -80.891310 39.176268 35.374526 9.688550 -116.157298 3.529643 3.206500 -49.659082 -38.310097 47.397760 -116.955829 83.193692 65.219298 41.920091 -20.179700 -29.748271 -121.480993 0.964860 -3.785387 -74.227443 44.141081 -67.396038 
-174.360001 16.040791 46.046638 -170.728693 -82.226906 -7.569484 164.747947 -15.651199 154.714317 -41.569525 -2.640871 11.574708 86.989364 -12.028551 -20.703893 21.454550 0.003085 0.000007 168.571254 8.798803 -173.122401 -34.142917 6.224082 2.770609 100.080303 -1.062755 13.662670 21.454563 -0.003109 -0.000012 4.989426 -0.475912 0.347284 -0.036885 -0.951510 0.695091 -0.355003 -0.947176 0.700823 4.526164 3.430061 -4.923659 -39.599733 0.135203 -4.688752 -97.928411 -83.956098 -84.312982 33.624618 30.712775 10.641389 -114.147604 3.251015 3.141086 -61.684927 -45.038954 55.911481 -115.622207 82.455738 66.616734 39.587493 -20.269189 -29.201572 -121.052208 0.881799 -3.762319 -74.279960 44.457425 -67.722350 
-174.430603 16.038759 46.117271 -170.100793 -82.313997 -8.196317 164.706638 -15.659115 154.140226 -41.273167 -2.179665 11.697639 86.460435 -12.139311 -20.251468 21.454553 0.003090 0.000001 168.549698 8.723600 -173.138192 -33.627125 5.799320 2.286271 98.813986 -0.555976 13.956621 21.454553 -0.003115 -0.000017 4.982648 -0.467201 0.187133 -0.049085 -0.934245 0.374818 -0.367219 -0.931825 0.380453 4.016456 4.250343 -4.503014 -39.103711 0.516262 -4.272816 -95.846747 -83.514294 -86.444800 31.486595 26.817701 11.902708 -113.878098 3.483234 3.113674 -68.071229 -49.035410 60.958830 -113.760776 81.874475 68.535860 37.444391 -20.810531 -28.601144 -120.425019 0.914731 -3.739193 -74.626428 44.524501 -68.053075 
-174.446304 16.045879 46.226200 -169.061307 -82.385421 -9.369599 164.722033 -15.546894 152.973698 -40.667284 -1.350616 12.070308 85.764056 -12.460886 -19.782326 21.454557 0.003094 -0.000003 168.470605 8.687194 -172.681007 -32.982444 5.111902 1.539394 97.012749 0.225583 14.380273 21.454565 -0.003111 -0.000016 4.945084 -0.462713 0.031983 -0.122950 -0.925394 0.064803 -0.441093 -0.924858 0.070390 3.904372 4.646503 -4.056143 -38.692089 1.275983 -4.154911 -94.232500 -81.617557 -88.237868 30.672802 24.458834 14.244325 -114.744910 2.995910 3.183881 -67.565925 -49.654755 60.385177 -113.431547 81.695059 68.881262 35.758772 -21.554021 -27.818643 -119.651199 0.957883 -3.710634 -74.643196 44.534889 -67.971714 
-174.389008 16.043600 46.333130 -167.949393 -82.478639 -10.757127 164.824021 -15.309415 151.394421 -39.761673 -0.265484 12.501551 84.807891 -12.898427 -19.420875 21.454551 0.003094 -0.000002 168.315915 8.612399 -172.221103 -32.318290 4.476868 0.763600 94.917684 1.106991 15.024164 21.454563 -0.003110 -0.000024 4.897915 -0.402977 -0.092013 -0.216382 -0.806225 -0.182974 -0.534512 -0.807182 -0.178103 4.299831 4.237900 -3.678925 -38.797110 1.930345 -4.244161 -90.641473 -80.152495 -91.988312 29.840222 24.817808 15.797031 -114.532205 2.708020 3.194727 -69.280788 -49.763573 62.468111 -111.827914 81.905853 70.480606 34.738967 -22.678330 -26.994827 -118.920601 0.932751 -3.678933 -74.326125 44.277982 -67.432948 
-174.294205 16.043610 46.412189 -166.937173 -82.554181 -12.156745 164.954246 -15.000397 149.678132 -38.941009 0.858389 12.834702 84.132324 -13.186071 -18.973036 21.454545 0.003095 0.000009 168.152468 8.535397 -171.868597 -31.635305 3.951664 0.073359 93.050324 2.045711 16.555200 21.454555 -0.003106 -0.000010 4.869865 -0.354045 -0.145518 -0.272226 -0.708626 -0.289945 -0.590348 -0.710205 -0.285659 4.148734 3.840439 -3.624123 -38.374547 2.055447 -4.322469 -90.365418 -79.642198 -92.313613 29.858059 25.233340 16.009782 -114.371306 2.916924 3.173548 -71.051999 -49.721520 63.945925 -111.021378 81.779351 71.302790 33.685957 -23.648155 -26.032195 -118.385497 0.887385 -3.653744 -73.946510 43.994447 -66.912454 
-174.207306 16.047729 46.490921 -165.979293 -82.528875 -13.425602 165.109496 -14.577309 148.327106 -38.236806 1.561794 12.737118 83.913648 -13.075264 -18.555850 21.454551 0.003093 0.000003 167.953368 8.540796 -171.556293 -31.231310 3.521635 -0.480397 91.600487 2.806281 17.593958 21.454560 -0.003102 -0.000009 4.851859 -0.352587 -0.181862 -0.308020 -0.705864 -0.362528 -0.626139 -0.707890 -0.358258 3.791420 3.968859 -3.835097 -37.798260 1.858589 -4.376891 -90.987074 -79.522923 -91.698268 30.275541 25.259319 16.169751 -114.605001 2.955889 3.180735 -72.015158 -49.604686 64.710312 -112.414668 81.424256 69.926978 32.633469 -24.154542 -25.165531 -118.074218 0.894424 -3.641362 -73.745771 43.791618 -66.675535 
